<svg width="698" height="1080" viewBox="0 0 698 1080" fill="none" xmlns="http://www.w3.org/2000/svg">
<rect width="698" height="1076" fill="white"/>
<path d="M199 977C199 1031.4 154.9 1075.5 100.5 1075.5C46.1 1075.5 2 1031.4 2 977C2 922.6 46.1 878.5 100.5 878.5C154.9 878.5 199 922.6 199 977Z" fill="#5DA45C" fill-opacity="0.2"/>
<path d="M600.5 779C600.5 827.877 555.281 867.5 499.5 867.5C443.719 867.5 398.5 827.877 398.5 779C398.5 730.123 443.719 690.5 499.5 690.5C555.281 690.5 600.5 730.123 600.5 779Z" fill="#1510E9" fill-opacity="0.2"/>
<path d="M20.5 1115C64.4066 1115 100 1080.08 100 1037C100 993.922 64.4066 959 20.5 959C-23.4066 959 -59 993.922 -59 1037C-59 1080.08 -23.4066 1115 20.5 1115Z" fill="#7BBF7A" fill-opacity="0.2"/>
<path d="M554 461C597.078 461 632 426.75 632 384.5C632 342.25 597.078 308 554 308C510.922 308 476 342.25 476 384.5C476 426.75 510.922 461 554 461Z" fill="#DCDE7E" fill-opacity="0.2"/>
<path d="M20 302C63.0782 302 98 267.75 98 225.5C98 183.25 63.0782 149 20 149C-23.0782 149 -58 183.25 -58 225.5C-58 267.75 -23.0782 302 20 302Z" fill="#C27EDE" fill-opacity="0.2"/>
<path d="M121 707C164.078 707 199 672.75 199 630.5C199 588.25 164.078 554 121 554C77.9218 554 43 588.25 43 630.5C43 672.75 77.9218 707 121 707Z" fill="#CE5B37" fill-opacity="0.2"/>
<path d="M464 959C507.078 959 542 924.75 542 882.5C542 840.25 507.078 806 464 806C420.922 806 386 840.25 386 882.5C386 924.75 420.922 959 464 959Z" fill="#EC0C5C" fill-opacity="0.2"/>
<path d="M402 186C445.078 186 480 151.75 480 109.5C480 67.2502 445.078 33 402 33C358.922 33 324 67.2502 324 109.5C324 151.75 358.922 186 402 186Z" fill="#4D96DA" fill-opacity="0.2"/>
</svg>
