<svg width="250" height="250" viewBox="0 0 250 250" fill="none" xmlns="http://www.w3.org/2000/svg">
<path d="M20.8333 111.979C20.8333 139.606 31.808 166.101 51.343 185.636C70.8781 205.171 97.3733 216.146 125 216.146C152.627 216.146 179.122 205.171 198.657 185.636C218.192 166.101 229.167 139.606 229.167 111.979C229.167 84.3524 218.192 57.8572 198.657 38.3222C179.122 18.7872 152.627 7.8125 125 7.8125C97.3733 7.8125 70.8781 18.7872 51.343 38.3222C31.808 57.8572 20.8333 84.3524 20.8333 111.979V111.979Z" fill="#FFE500"/>
<path d="M125 7.8125C104.398 7.8125 84.2582 13.9218 67.1281 25.3677C49.998 36.8137 36.6467 53.0823 28.7625 72.1163C20.8784 91.1503 18.8156 112.095 22.8349 132.301C26.8542 152.507 36.7751 171.068 51.343 185.636C65.911 200.204 84.4717 210.125 104.678 214.144C124.884 218.164 145.829 216.101 164.863 208.217C183.897 200.332 200.165 186.981 211.611 169.851C223.057 152.721 229.167 132.581 229.167 111.979C229.167 84.3524 218.192 57.8572 198.657 38.3222C179.122 18.7872 152.627 7.8125 125 7.8125V7.8125ZM125 200.521C106.2 200.521 87.8231 194.946 72.1919 184.502C56.5607 174.057 44.3776 159.212 37.1833 141.844C29.9891 124.475 28.1067 105.363 31.7743 86.925C35.4419 68.4867 44.4948 51.55 57.788 38.2568C71.0813 24.9635 88.018 15.9107 106.456 12.2431C124.895 8.57546 144.006 10.4578 161.375 17.6521C178.743 24.8463 193.588 37.0294 204.033 52.6606C214.477 68.2919 220.052 86.6692 220.052 105.469C220.052 130.678 210.038 154.855 192.212 172.681C174.386 190.506 150.209 200.521 125 200.521V200.521Z" fill="#EBCB00"/>
<path d="M93.75 28.6458C93.75 30.7178 97.0424 32.705 102.903 34.1701C108.763 35.6352 116.712 36.4583 125 36.4583C133.288 36.4583 141.237 35.6352 147.097 34.1701C152.958 32.705 156.25 30.7178 156.25 28.6458C156.25 26.5738 152.958 24.5867 147.097 23.1216C141.237 21.6564 133.288 20.8333 125 20.8333C116.712 20.8333 108.763 21.6564 102.903 23.1216C97.0424 24.5867 93.75 26.5738 93.75 28.6458Z" fill="#FFF48C"/>
<path d="M20.8333 111.979C20.8333 139.606 31.808 166.101 51.343 185.636C70.8781 205.171 97.3733 216.146 125 216.146C152.627 216.146 179.122 205.171 198.657 185.636C218.192 166.101 229.167 139.606 229.167 111.979C229.167 84.3524 218.192 57.8572 198.657 38.3222C179.122 18.7872 152.627 7.8125 125 7.8125C97.3733 7.8125 70.8781 18.7872 51.343 38.3222C31.808 57.8572 20.8333 84.3524 20.8333 111.979V111.979Z" stroke="#45413C" stroke-width="5.20833" stroke-linecap="round" stroke-linejoin="round"/>
<path d="M200.521 138.021C200.521 142.344 194.688 145.833 187.5 145.833C180.313 145.833 174.479 142.344 174.479 138.021C174.479 133.698 180.313 130.208 187.5 130.208C194.688 130.208 200.521 133.698 200.521 138.021Z" fill="#FFAA54"/>
<path d="M49.4792 138.021C49.4792 142.344 55.3125 145.833 62.5 145.833C69.6875 145.833 75.5208 142.344 75.5208 138.021C75.5208 133.698 69.6875 130.208 62.5 130.208C55.3125 130.208 49.4792 133.698 49.4792 138.021Z" fill="#FFAA54"/>
<path d="M98.9583 161.458H151.042" stroke="#45413C" stroke-width="5.20833" stroke-linecap="round" stroke-linejoin="round"/>
<path d="M85.9375 114.583H57.2917" stroke="#45413C" stroke-width="5.20833" stroke-linecap="round" stroke-linejoin="round"/>
<path d="M192.708 114.583H164.062" stroke="#45413C" stroke-width="5.20833" stroke-linecap="round" stroke-linejoin="round"/>
</svg>
