<svg width="790" height="790" viewBox="0 0 790 790" fill="none" xmlns="http://www.w3.org/2000/svg">
<path d="M82.95 402.571C82.95 443.55 91.0214 484.128 106.703 521.987C122.385 559.847 145.371 594.247 174.347 623.224C203.324 652.2 237.724 675.186 275.584 690.868C313.443 706.55 354.021 714.621 395 714.621C435.979 714.621 476.557 706.55 514.416 690.868C552.276 675.186 586.676 652.2 615.653 623.224C644.629 594.247 667.615 559.847 683.297 521.987C698.979 484.128 707.05 443.55 707.05 402.571C707.05 361.592 698.979 321.014 683.297 283.154C667.615 245.295 644.629 210.895 615.653 181.918C586.676 152.942 552.276 129.956 514.416 114.274C476.557 98.5922 435.979 90.5208 395 90.5208C354.021 90.5208 313.443 98.5922 275.584 114.274C237.724 129.956 203.324 152.942 174.347 181.918C145.371 210.895 122.385 245.295 106.703 283.154C91.0214 321.014 82.95 361.592 82.95 402.571V402.571Z" fill="#FFE500"/>
<path d="M395 90.5208C333.152 90.5208 272.693 108.861 221.269 143.222C169.844 177.582 129.763 226.421 106.095 283.561C82.427 340.701 76.2344 403.576 88.3003 464.235C100.366 524.895 130.149 580.614 173.882 624.347C217.615 668.08 273.334 697.863 333.994 709.929C394.653 721.995 457.528 715.802 514.668 692.134C571.808 668.466 620.647 628.385 655.007 576.961C689.368 525.536 707.708 465.077 707.708 403.229C707.708 320.294 674.762 240.755 616.118 182.111C557.474 123.467 477.935 90.5208 395 90.5208V90.5208ZM395 667.715C338.686 667.715 283.636 651.015 236.813 619.729C189.989 588.443 153.495 543.974 131.945 491.946C110.394 439.919 104.755 382.67 115.742 327.437C126.728 272.205 153.846 221.472 193.666 181.651C233.486 141.831 284.22 114.714 339.452 103.727C394.684 92.7409 451.934 98.3795 503.961 119.93C555.989 141.48 600.457 177.975 631.744 224.798C663.03 271.622 679.729 326.671 679.729 382.985C679.729 458.5 649.731 530.922 596.334 584.319C542.937 637.716 470.515 667.715 395 667.715Z" fill="#EBCB00"/>
<path d="M82.95 402.571C82.95 443.55 91.0214 484.128 106.703 521.987C122.385 559.847 145.371 594.247 174.347 623.224C203.324 652.2 237.724 675.186 275.584 690.868C313.443 706.55 354.021 714.621 395 714.621C435.979 714.621 476.557 706.55 514.416 690.868C552.276 675.186 586.676 652.2 615.653 623.224C644.629 594.247 667.615 559.847 683.297 521.987C698.979 484.128 707.05 443.55 707.05 402.571C707.05 361.592 698.979 321.014 683.297 283.154C667.615 245.295 644.629 210.895 615.653 181.918C586.676 152.942 552.276 129.956 514.416 114.274C476.557 98.5922 435.979 90.5208 395 90.5208C354.021 90.5208 313.443 98.5922 275.584 114.274C237.724 129.956 203.324 152.942 174.347 181.918C145.371 210.895 122.385 245.295 106.703 283.154C91.0214 321.014 82.95 361.592 82.95 402.571V402.571Z" stroke="#45413C" stroke-width="5.20833" stroke-linecap="round" stroke-linejoin="round"/>
<path d="M309.252 378.542C309.252 389.349 306.047 399.913 300.043 408.899C294.039 417.885 285.505 424.888 275.521 429.024C265.536 433.16 254.55 434.242 243.95 432.133C233.351 430.025 223.615 424.821 215.973 417.179C208.331 409.537 203.127 399.801 201.019 389.202C198.91 378.602 199.992 367.616 204.128 357.631C208.264 347.647 215.267 339.113 224.253 333.109C233.239 327.105 243.803 323.9 254.61 323.9C269.102 323.9 283.001 329.657 293.248 339.904C303.495 350.151 309.252 364.05 309.252 378.542V378.542Z" fill="white" stroke="#45413C" stroke-width="5.20833" stroke-linecap="round" stroke-linejoin="round"/>
<path d="M621.138 480.583C621.138 493.421 603.692 503.954 582.131 503.954C560.571 503.954 543.125 493.75 543.125 480.583C543.125 467.417 560.735 457.213 582.131 457.213C603.527 457.213 621.138 467.581 621.138 480.583Z" fill="#FFAA54"/>
<path d="M168.862 480.583C168.862 493.421 186.308 503.954 207.869 503.954C229.429 503.954 246.875 493.75 246.875 480.583C246.875 467.417 229.265 457.213 207.869 457.213C186.473 457.213 168.862 467.581 168.862 480.583Z" fill="#FFAA54"/>
<path d="M465.277 8.22916V289.008" stroke="#45413C" stroke-width="5.20833" stroke-linecap="round" stroke-linejoin="round"/>
<path d="M535.39 35.8792V293.287" stroke="#45413C" stroke-width="5.20833" stroke-linecap="round" stroke-linejoin="round"/>
<path d="M605.667 82.7854V324.558" stroke="#45413C" stroke-width="5.20833" stroke-linecap="round" stroke-linejoin="round"/>
<path d="M590.031 378.542C590.031 389.349 586.827 399.913 580.822 408.899C574.818 417.885 566.285 424.888 556.3 429.024C546.316 433.16 535.329 434.242 524.73 432.133C514.13 430.025 504.394 424.821 496.752 417.179C489.11 409.537 483.906 399.801 481.798 389.202C479.689 378.602 480.772 367.616 484.907 357.631C489.043 347.647 496.047 339.113 505.032 333.109C514.018 327.105 524.582 323.9 535.39 323.9C549.881 323.9 563.78 329.657 574.027 339.904C584.274 350.151 590.031 364.05 590.031 378.542V378.542Z" fill="white" stroke="#45413C" stroke-width="5.20833" stroke-linecap="round" stroke-linejoin="round"/>
<path d="M395 602.375C427.708 602.382 460.053 609.221 489.965 622.454C521.894 636.773 558.76 627.556 566.66 585.258C577.523 526.667 496.383 441.577 395 441.577C293.617 441.577 212.477 526.667 223.34 585.258C231.24 627.556 268.106 636.773 300.035 622.454C329.947 609.221 362.292 602.382 395 602.375V602.375Z" fill="#FFB0CA" stroke="#45413C" stroke-width="5.20833" stroke-linecap="round" stroke-linejoin="round"/>
<path d="M395 602.375C427.708 602.382 460.053 609.221 489.965 622.454C499.152 627.298 509.515 629.465 519.873 628.709C530.232 627.952 540.17 624.303 548.556 618.175C530.387 594.763 507.106 575.816 480.491 562.782C453.877 549.747 424.635 542.971 395 542.971C365.365 542.971 336.123 549.747 309.509 562.782C282.894 575.816 259.613 594.763 241.444 618.175C249.83 624.303 259.768 627.952 270.127 628.709C280.485 629.465 290.848 627.298 300.035 622.454C329.947 609.221 362.292 602.382 395 602.375V602.375Z" fill="#FF87AF" stroke="#45413C" stroke-width="5.20833" stroke-linecap="round" stroke-linejoin="round"/>
</svg>
