<svg width="250" height="250" viewBox="0 0 250 250" fill="none" xmlns="http://www.w3.org/2000/svg">
<path d="M20.8333 111.979C20.8333 139.606 31.808 166.101 51.343 185.636C70.8781 205.171 97.3733 216.146 125 216.146C152.627 216.146 179.122 205.171 198.657 185.636C218.192 166.101 229.167 139.606 229.167 111.979C229.167 84.3524 218.192 57.8572 198.657 38.3222C179.122 18.7872 152.627 7.8125 125 7.8125C97.3733 7.8125 70.8781 18.7872 51.343 38.3222C31.808 57.8572 20.8333 84.3524 20.8333 111.979V111.979Z" fill="#FFE500"/>
<path d="M125 7.8125C104.398 7.8125 84.2582 13.9218 67.1281 25.3677C49.998 36.8137 36.6467 53.0823 28.7625 72.1163C20.8784 91.1503 18.8156 112.095 22.8349 132.301C26.8542 152.507 36.7751 171.068 51.343 185.636C65.911 200.204 84.4717 210.125 104.678 214.144C124.884 218.164 145.829 216.101 164.863 208.217C183.897 200.332 200.165 186.981 211.611 169.851C223.057 152.721 229.167 132.581 229.167 111.979C229.167 84.3524 218.192 57.8572 198.657 38.3222C179.122 18.7872 152.627 7.8125 125 7.8125V7.8125ZM125 200.521C106.2 200.521 87.8231 194.946 72.1919 184.502C56.5607 174.057 44.3776 159.212 37.1833 141.844C29.9891 124.475 28.1067 105.363 31.7743 86.925C35.4419 68.4867 44.4948 51.55 57.788 38.2568C71.0813 24.9635 88.018 15.9107 106.456 12.2431C124.895 8.57546 144.006 10.4578 161.375 17.6521C178.743 24.8463 193.588 37.0294 204.033 52.6606C214.477 68.2919 220.052 86.6692 220.052 105.469C220.052 130.678 210.038 154.855 192.212 172.681C174.386 190.506 150.209 200.521 125 200.521V200.521Z" fill="#EBCB00"/>
<path d="M93.75 28.6458C93.75 30.7178 97.0424 32.705 102.903 34.1701C108.763 35.6352 116.712 36.4583 125 36.4583C133.288 36.4583 141.237 35.6352 147.097 34.1701C152.958 32.705 156.25 30.7178 156.25 28.6458C156.25 26.5738 152.958 24.5867 147.097 23.1216C141.237 21.6564 133.288 20.8333 125 20.8333C116.712 20.8333 108.763 21.6564 102.903 23.1216C97.0424 24.5867 93.75 26.5738 93.75 28.6458Z" fill="#FFF48C"/>
<path d="M20.8333 111.979C20.8333 139.606 31.808 166.101 51.343 185.636C70.8781 205.171 97.3733 216.146 125 216.146C152.627 216.146 179.122 205.171 198.657 185.636C218.192 166.101 229.167 139.606 229.167 111.979C229.167 84.3524 218.192 57.8572 198.657 38.3222C179.122 18.7872 152.627 7.8125 125 7.8125C97.3733 7.8125 70.8781 18.7872 51.343 38.3222C31.808 57.8572 20.8333 84.3524 20.8333 111.979V111.979Z" stroke="#45413C" stroke-width="5.20833" stroke-linecap="round" stroke-linejoin="round"/>
<path d="M200.521 138.021C200.521 142.344 194.688 145.833 187.5 145.833C180.313 145.833 174.479 142.344 174.479 138.021C174.479 133.698 180.313 130.208 187.5 130.208C194.688 130.208 200.521 133.698 200.521 138.021Z" fill="#FFAA54"/>
<path d="M49.4792 138.021C49.4792 140.093 50.851 142.08 53.2929 143.545C55.7348 145.01 59.0467 145.833 62.5 145.833C65.9533 145.833 69.2652 145.01 71.7071 143.545C74.149 142.08 75.5208 140.093 75.5208 138.021C75.5208 135.949 74.149 133.962 71.7071 132.497C69.2652 131.031 65.9533 130.208 62.5 130.208C59.0467 130.208 55.7348 131.031 53.2929 132.497C50.851 133.962 49.4792 135.949 49.4792 138.021V138.021Z" fill="#FFAA54"/>
<path d="M98.9583 164.063C98.9583 175.113 101.702 185.711 106.586 193.525C111.47 201.339 118.093 205.729 125 205.729C131.907 205.729 138.53 201.339 143.414 193.525C148.298 185.711 151.042 175.113 151.042 164.063C151.042 153.012 148.298 142.414 143.414 134.6C138.53 126.786 131.907 122.396 125 122.396C118.093 122.396 111.47 126.786 106.586 134.6C101.702 142.414 98.9583 153.012 98.9583 164.063V164.063Z" fill="#FFB0CA" stroke="#45413C" stroke-width="5.20833" stroke-linecap="round" stroke-linejoin="round"/>
<path d="M194.844 86.1458C202.865 99.0625 201.719 114.219 192.344 120.052C182.969 125.885 168.906 120.052 161.094 107.188C153.281 94.3229 154.219 79.1667 163.594 73.3333C172.969 67.5 186.875 73.2292 194.844 86.1458Z" fill="white" stroke="#45413C" stroke-width="5.20833" stroke-linecap="round" stroke-linejoin="round"/>
<path d="M55.1562 86.1458C47.1354 99.0625 48.2812 114.219 57.6562 120.052C67.0312 125.885 81.0937 120.052 88.9062 107.188C96.7187 94.3229 95.7812 79.1667 86.4062 73.3333C77.0312 67.5 63.125 73.2292 55.1562 86.1458Z" fill="white" stroke="#45413C" stroke-width="5.20833" stroke-linecap="round" stroke-linejoin="round"/>
<path d="M76.875 235.156C76.6867 236.398 76.0558 237.53 75.0987 238.344C74.1416 239.157 72.9227 239.598 71.6667 239.583H41.6667C40.8581 239.583 40.0606 239.395 39.3374 239.033C38.6142 238.672 37.9851 238.147 37.5 237.5C37.0149 236.853 36.687 236.102 36.5423 235.307C36.3977 234.511 36.4403 233.693 36.6667 232.917C43.5417 208.802 34.9479 170.417 21.0417 146.458C13.2292 132.812 30.0521 133.125 36.6667 136.979C83.3333 168.594 79.2187 219.896 76.875 235.156Z" fill="#FFE500" stroke="#45413C" stroke-width="5.20833" stroke-linecap="round" stroke-linejoin="round"/>
<path d="M173.125 235.156C173.313 236.398 173.944 237.53 174.901 238.344C175.858 239.157 177.077 239.598 178.333 239.583H208.333C209.142 239.583 209.939 239.395 210.663 239.033C211.386 238.672 212.015 238.147 212.5 237.5C212.985 236.853 213.313 236.102 213.458 235.307C213.602 234.511 213.56 233.693 213.333 232.917C206.458 208.802 215.052 170.417 228.958 146.458C236.771 132.812 219.948 133.125 213.333 136.979C166.667 168.594 170.781 219.896 173.125 235.156Z" fill="#FFE500" stroke="#45413C" stroke-width="5.20833" stroke-linecap="round" stroke-linejoin="round"/>
<path d="M125 205.729C134.323 205.729 142.448 197.917 147.083 186.198C142.448 174.479 134.323 166.667 125 166.667C115.677 166.667 107.552 174.479 102.917 186.198C107.552 197.917 115.677 205.729 125 205.729Z" fill="#FF866E" stroke="#45413C" stroke-width="5.20833" stroke-linecap="round" stroke-linejoin="round"/>
</svg>
